<?xml version="1.0" encoding="utf-8"?>
<!-- Generator: Adobe Illustrator 26.1.0, SVG Export Plug-In . SVG Version: 6.00 Build 0)  -->
<svg version="1.1" id="Layer_1" xmlns="http://www.w3.org/2000/svg" xmlns:xlink="http://www.w3.org/1999/xlink" x="0px" y="0px"
	 viewBox="0 0 800 600" style="enable-background:new 0 0 800 600;" xml:space="preserve">
<style type="text/css">
	.st0{fill-rule:evenodd;clip-rule:evenodd;}
	.st1{fill:#FFFFFF;}
	.st2{fill-rule:evenodd;clip-rule:evenodd;fill:#FF9600;}
	.st3{fill:#FF9600;}
</style>
<g>
	<path class="st0" d="M246.78,408.47c3.74-4.17,7.19-8.16,7.68-10.46c-1.42,1.41-3.5,2.7-5.96,3.92c-2.62,1.3-7.56,0.59-7.12-3.21
		c0.35-3.04,5.31-5.85,7.68-2.07c1.1,1.75,0.31,2.98,2.76,1.74c1.26-0.64,2.27-1.63,2.82-2.81c0.65-1.38,0.36-2.81,0.13-4.27
		c-0.93-6.08-3.78-9.69-8.61-10.82c-7.21-1.69-25.45,2.13-29.53,8.48c-1.77,2.77-2.06,6.31-0.88,10.64
		c0.39,1.43,0.71,2.85,1.86,3.85c0.98,0.85,2.31,1.35,3.71,1.42c2.74,0.13,1.53-0.66,1.82-2.71c0.63-4.41,6.31-3.86,7.86-1.23
		c1.95,3.29-2.27,5.95-5.19,5.82c-2.74-0.12-5.17-0.45-7.04-1.16c1.37,1.88,6.04,4.09,11.07,6.34
		C240.6,416.76,238.92,417.24,246.78,408.47"/>
	<path d="M151.74,328.5c1.91-39.71,15.13-51.69,15.13-51.69s-46.72,13.52-74.38,42.72c-9.84,14.13,2.46,28.89,2.46,28.89
		l24.28,39.96c0,0,11.68,20.9,24.59-4.61C147.5,372.09,151.5,352.73,151.74,328.5"/>
	<path d="M279.53,309.9c-14.48-36.95-30.81-44.07-30.81-44.07s48.51-2.12,83.99,16.67c13.82,10.23,6.89,28.11,6.89,28.11
		l-10.21,45.55c0,0-4.38,23.5-24.73,3.49C297.45,349.78,287.49,332.74,279.53,309.9"/>
	<path d="M198.01,340.06c-1.91-5.19-7.17-16.95-16.03-18.43c-10.95-1.2-15.53,6.68-17.29,11.59c-0.75,2.09-1.16,3.86-1.62,5.07
		c-0.94,1.92,0.15,1.94,0.39,1.95c1.31,0.08,3.56,0.53,6,2.39c6.04,4.61,15.37,3.79,20.73,1.71c1.5-0.58,3.94-1.08,5.85-1.41
		C196.66,342.84,199.31,342.89,198.01,340.06"/>
	<path class="st1" d="M189.35,332.85c0,5.32-4.6,9.63-10.26,9.63c-5.67,0-10.26-4.31-10.26-9.63c0-5.32,4.6-9.63,10.26-9.63
		C184.75,323.22,189.35,327.53,189.35,332.85"/>
	<path d="M189.2,334.97c0,4.7-4.06,8.52-9.07,8.52c-5.01,0-9.07-3.81-9.07-8.52c0-4.7,4.06-8.51,9.07-8.51
		C185.14,326.46,189.2,330.27,189.2,334.97"/>
	<path class="st1" d="M183.92,332.68c0,1.71-1.39,3.1-3.11,3.1c-1.71,0-3.1-1.39-3.1-3.1c0-1.71,1.39-3.1,3.1-3.1
		C182.53,329.58,183.92,330.97,183.92,332.68"/>
	<path d="M244.15,331.11c0,0-5.57-17.74,8.06-24.92c12.56-5.46,19.44,10.56,19.44,10.56s-0.79,12.03-22.12,16.1
		C246.61,334.43,245.12,334.73,244.15,331.11"/>
	<path class="st1" d="M267.16,317.97c-0.28,5.38-5.16,9.49-10.88,9.19c-5.73-0.31-10.14-4.91-9.85-10.28
		c0.29-5.38,5.15-9.48,10.88-9.18C263.04,308,267.45,312.6,267.16,317.97"/>
	<path d="M266.47,319.97c-0.25,4.83-4.63,8.53-9.79,8.26c-5.15-0.28-9.11-4.41-8.86-9.24c0.26-4.84,4.64-8.53,9.79-8.26
		C262.76,311,266.72,315.14,266.47,319.97"/>
	<path class="st1" d="M259.53,317.6c-0.08,1.62-1.47,2.86-3.08,2.77c-1.62-0.08-2.86-1.47-2.77-3.08c0.08-1.62,1.46-2.86,3.08-2.78
		C258.37,314.6,259.61,315.99,259.53,317.6"/>
	<path d="M235.18,412.75c1.23,1.34,7.99,9.8,2.63,15.04c2.34,1.34,9.38-0.37,8.49-1.6c-4.79-1.45-5.6-12.98-4.37-14.43
		C243.16,410.32,236.41,410.85,235.18,412.75"/>
	<path d="M153.88,375.67c-2.99-2.02,0.08-1.1,3.34,0.4c4.31,1.98,14.79,4.11,20.48,17.29c6.58,14.75,9.68,20.75,11.66,23.31
		c1.02,1.32,0.73,2.21-1.03,0.76c-9.95-9.96-12.67-15.61-15.33-21.84C167.76,384.66,157.57,378.17,153.88,375.67"/>
	<path d="M291.1,354.59c0.1-2.26-0.32-3.45-1.32-0.27c-1.04,3.31-3.81,9.53-7.42,14.62c-4.37,6.17-4.65,17.64-3.17,25.82
		c1.05,4.14,1.83,5.24,1.66-0.4c-0.23-7.87,1.84-17.91,4.98-22.5C291.1,363.78,290.89,359.51,291.1,354.59"/>
	<path d="M280.37,405.48c-3.4,18.29-18.61,22.06-34.31,20.6c-2.62-0.34-4.81,0.02-6.9,0.77c-6.41,4.36-32.06,13.21-43.94-1.11
		c-0.87-1.27-2.22-0.37-0.78,1.44c6.4,10.37,21.86,17.15,45.73,4.17c2.7-1.38,3.9-1.12,5.88-0.63c15.13,3.53,36.59-5.3,35.41-23.86
		C281.48,403.58,280.38,403.62,280.37,405.48"/>
	<path class="st2" d="M738.01,258.09c-0.01-2.92-2.65-3.69-2.65-3.69l-333.39-96.22c0,0-1.8-0.96-4.23-0.09
		c-2.43,0.87-333.87,96.36-333.87,96.36s-2.64,0.77-2.65,3.69c-0.01,2.92-0.02,31.52,0.12,33.8c0.19,3.12,2.32,2.35,2.32,2.35
		s333.68-123.9,334.66-124.33c0.98-0.43,2.61-0.03,2.61-0.03l334.62,124.32c0,0,2.13,0.77,2.33-2.35
		C738.03,289.6,738.02,261.01,738.01,258.09"/>
	<path d="M378.55,307.96h-20.62v11.09h18.99c1.4,0,2.44,0.31,3.13,0.94c0.69,0.62,1.03,1.46,1.03,2.48c0,1.03-0.34,1.86-1.02,2.51
		c-0.68,0.65-1.72,0.97-3.14,0.97h-18.99v12.85h21.33c1.44,0,2.52,0.34,3.25,1c0.73,0.67,1.09,1.56,1.09,2.67
		c0,1.07-0.36,1.94-1.09,2.61c-0.73,0.67-1.81,1-3.25,1h-24.87c-1.99,0-3.43-0.44-4.3-1.32c-0.87-0.88-1.31-2.31-1.31-4.28v-33.96
		c0-1.32,0.19-2.39,0.58-3.22c0.39-0.83,1-1.44,1.83-1.82c0.83-0.38,1.9-0.57,3.19-0.57h24.16c1.46,0,2.54,0.33,3.25,0.97
		c0.71,0.65,1.06,1.5,1.06,2.54c0,1.07-0.35,1.92-1.06,2.57C381.1,307.64,380.01,307.96,378.55,307.96"/>
	<path d="M399.22,305.68v32.88h18.55c1.48,0,2.61,0.36,3.4,1.08c0.79,0.72,1.19,1.62,1.19,2.71c0,1.11-0.39,2.01-1.17,2.7
		c-0.78,0.69-1.92,1.03-3.42,1.03h-22.1c-1.99,0-3.43-0.44-4.3-1.32c-0.88-0.88-1.31-2.31-1.31-4.28v-34.8
		c0-1.85,0.42-3.24,1.25-4.16c0.83-0.92,1.93-1.39,3.28-1.39c1.38,0,2.49,0.46,3.35,1.37C398.79,302.42,399.22,303.81,399.22,305.68
		"/>
	<path d="M476.65,331.82c0,1.44-0.35,2.99-1.06,4.67c-0.71,1.68-1.83,3.32-3.35,4.93c-1.52,1.61-3.46,2.92-5.82,3.93
		c-2.36,1.01-5.12,1.51-8.26,1.51c-2.38,0-4.55-0.23-6.5-0.68c-1.95-0.45-3.73-1.16-5.32-2.11c-1.59-0.96-3.05-2.21-4.39-3.78
		c-1.19-1.42-2.21-3-3.05-4.76c-0.84-1.76-1.47-3.63-1.89-5.62c-0.42-1.99-0.63-4.11-0.63-6.35c0-3.64,0.53-6.89,1.59-9.77
		c1.06-2.88,2.57-5.33,4.55-7.38c1.97-2.04,4.29-3.6,6.93-4.67c2.65-1.07,5.48-1.6,8.47-1.6c3.66,0,6.92,0.73,9.77,2.19
		c2.86,1.46,5.04,3.26,6.56,5.41c1.52,2.15,2.28,4.18,2.28,6.09c0,1.05-0.37,1.97-1.11,2.77c-0.74,0.8-1.63,1.2-2.68,1.2
		c-1.17,0-2.05-0.28-2.64-0.83c-0.58-0.56-1.24-1.51-1.96-2.87c-1.19-2.24-2.59-3.92-4.21-5.03c-1.61-1.11-3.6-1.66-5.96-1.66
		c-3.76,0-6.75,1.43-8.98,4.29c-2.23,2.86-3.35,6.91-3.35,12.17c0,3.52,0.49,6.44,1.48,8.77c0.99,2.33,2.38,4.07,4.19,5.22
		c1.81,1.15,3.92,1.73,6.35,1.73c2.63,0,4.85-0.65,6.67-1.96c1.82-1.31,3.19-3.22,4.12-5.75c0.39-1.19,0.87-2.16,1.45-2.91
		c0.58-0.75,1.5-1.12,2.77-1.12c1.09,0,2.02,0.38,2.8,1.14C476.26,329.74,476.65,330.69,476.65,331.82"/>
	<path d="M513.15,340.97L511,335.3h-18.37l-2.16,5.79c-0.84,2.26-1.56,3.79-2.16,4.58c-0.6,0.79-1.57,1.19-2.93,1.19
		c-1.15,0-2.17-0.42-3.05-1.26c-0.88-0.84-1.33-1.8-1.33-2.87c0-0.62,0.1-1.25,0.31-1.91c0.21-0.66,0.55-1.57,1.02-2.74l11.56-29.34
		c0.33-0.84,0.73-1.85,1.19-3.03c0.46-1.18,0.96-2.16,1.48-2.95c0.52-0.78,1.21-1.41,2.07-1.89c0.85-0.48,1.91-0.72,3.16-0.72
		c1.28,0,2.34,0.24,3.19,0.72c0.85,0.48,1.54,1.1,2.06,1.86c0.52,0.76,0.97,1.58,1.33,2.45c0.36,0.87,0.82,2.04,1.37,3.5l11.8,29.16
		c0.92,2.22,1.39,3.83,1.39,4.84c0,1.05-0.44,2.01-1.31,2.88c-0.87,0.87-1.93,1.31-3.16,1.31c-0.72,0-1.33-0.13-1.85-0.38
		c-0.51-0.26-0.95-0.61-1.29-1.05c-0.35-0.44-0.72-1.12-1.12-2.04C513.79,342.47,513.44,341.67,513.15,340.97 M495.03,328.43h13.5
		l-6.81-18.65L495.03,328.43z"/>
	<path d="M544.27,339.27l-7.24-28.78v31.19c0,1.72-0.38,3.02-1.16,3.88c-0.77,0.87-1.79,1.3-3.07,1.3c-1.23,0-2.24-0.43-3.02-1.28
		c-0.78-0.85-1.17-2.15-1.17-3.9v-35.75c0-1.97,0.51-3.3,1.54-3.99c1.03-0.69,2.41-1.03,4.16-1.03h2.83c1.71,0,2.94,0.15,3.71,0.46
		c0.77,0.31,1.34,0.86,1.71,1.66c0.37,0.8,0.79,2.11,1.26,3.92l6.56,24.75l6.57-24.75c0.47-1.81,0.89-3.12,1.26-3.92
		c0.37-0.8,0.94-1.36,1.71-1.66c0.77-0.31,2.01-0.46,3.71-0.46h2.84c1.75,0,3.13,0.34,4.16,1.03c1.03,0.69,1.54,2.02,1.54,3.99
		v35.75c0,1.72-0.38,3.02-1.16,3.88c-0.77,0.87-1.8,1.3-3.1,1.3c-1.21,0-2.21-0.43-2.99-1.3c-0.78-0.86-1.17-2.16-1.17-3.88v-31.19
		l-7.24,28.78c-0.47,1.87-0.86,3.24-1.15,4.11c-0.3,0.87-0.85,1.67-1.65,2.39c-0.8,0.72-1.91,1.08-3.33,1.08
		c-1.07,0-1.97-0.23-2.71-0.7c-0.74-0.46-1.31-1.05-1.73-1.77c-0.41-0.72-0.73-1.52-0.97-2.39
		C544.75,341.13,544.51,340.22,544.27,339.27"/>
	<path d="M598.49,328.49h-8.38v12.79c0,1.83-0.43,3.22-1.29,4.16c-0.86,0.95-1.95,1.42-3.27,1.42c-1.38,0-2.49-0.47-3.33-1.4
		c-0.84-0.93-1.26-2.3-1.26-4.11v-34.83c0-2.01,0.46-3.45,1.39-4.32c0.92-0.86,2.39-1.29,4.41-1.29h11.74c3.47,0,6.14,0.27,8.01,0.8
		c1.85,0.51,3.45,1.37,4.79,2.56c1.35,1.19,2.37,2.65,3.07,4.38c0.7,1.73,1.05,3.67,1.05,5.82c0,4.6-1.42,8.09-4.25,10.46
		C608.32,327.3,604.1,328.49,598.49,328.49 M596.28,307.78h-6.16v13.81h6.16c2.16,0,3.96-0.23,5.41-0.68
		c1.45-0.45,2.55-1.19,3.31-2.22c0.76-1.03,1.14-2.37,1.14-4.04c0-1.99-0.58-3.62-1.76-4.87
		C603.07,308.45,600.36,307.78,596.28,307.78"/>
	<path d="M622.79,341.28v-35.6c0-1.85,0.42-3.24,1.26-4.16c0.84-0.92,1.93-1.39,3.27-1.39c1.38,0,2.49,0.45,3.34,1.37
		c0.85,0.91,1.28,2.31,1.28,4.17v35.6c0,1.87-0.42,3.27-1.28,4.19c-0.85,0.93-1.97,1.39-3.34,1.39c-1.32,0-2.4-0.47-3.25-1.4
		C623.22,344.52,622.79,343.13,622.79,341.28"/>
	<path d="M670.89,308.46h-9.99v32.82c0,1.89-0.42,3.29-1.26,4.21c-0.84,0.91-1.93,1.37-3.27,1.37c-1.36,0-2.46-0.46-3.31-1.39
		c-0.85-0.92-1.28-2.32-1.28-4.19v-32.82h-9.99c-1.56,0-2.72-0.34-3.48-1.03c-0.76-0.69-1.14-1.6-1.14-2.73
		c0-1.17,0.4-2.1,1.19-2.78c0.79-0.68,1.94-1.02,3.44-1.02h29.09c1.58,0,2.76,0.35,3.53,1.05c0.77,0.7,1.16,1.61,1.16,2.74
		c0,1.13-0.39,2.04-1.17,2.73C673.62,308.11,672.45,308.46,670.89,308.46"/>
	<path d="M699.41,300.14c4.69,0,8.71,0.95,12.07,2.85c3.36,1.9,5.9,4.6,7.63,8.1c1.73,3.5,2.59,7.62,2.59,12.34
		c0,3.49-0.47,6.67-1.42,9.52c-0.94,2.86-2.36,5.33-4.25,7.43c-1.89,2.09-4.21,3.7-6.96,4.81c-2.75,1.11-5.91,1.66-9.46,1.66
		c-3.54,0-6.7-0.57-9.49-1.71c-2.79-1.14-5.13-2.75-7-4.82c-1.87-2.08-3.28-4.57-4.24-7.49c-0.95-2.92-1.43-6.07-1.43-9.46
		c0-3.47,0.5-6.66,1.49-9.55c1-2.9,2.44-5.36,4.33-7.4c1.89-2.03,4.19-3.59,6.9-4.67C692.88,300.67,695.96,300.14,699.41,300.14
		 M712.42,323.37c0-3.31-0.53-6.17-1.6-8.6c-1.07-2.42-2.59-4.26-4.58-5.5c-1.98-1.24-4.26-1.87-6.83-1.87
		c-1.83,0-3.52,0.34-5.07,1.03c-1.55,0.69-2.89,1.69-4.01,3c-1.12,1.32-2,3-2.65,5.04c-0.65,2.04-0.97,4.34-0.97,6.89
		c0,2.57,0.32,4.89,0.97,6.96c0.65,2.08,1.56,3.8,2.74,5.16c1.18,1.37,2.54,2.39,4.07,3.07c1.53,0.68,3.21,1.02,5.04,1.02
		c2.34,0,4.49-0.59,6.46-1.76c1.96-1.17,3.52-2.98,4.69-5.42C711.84,329.96,712.42,326.94,712.42,323.37"/>
	<path class="st3" d="M367.48,391.91H363v20.3c0,2.67-0.59,4.64-1.77,5.9c-1.18,1.26-2.71,1.9-4.61,1.9c-2.04,0-3.62-0.66-4.74-1.98
		c-1.12-1.32-1.68-3.26-1.68-5.82v-48.6c0-2.76,0.62-4.75,1.85-5.99c1.23-1.23,3.23-1.85,5.99-1.85h20.81
		c2.87,0,5.33,0.12,7.37,0.37c2.04,0.24,3.88,0.74,5.52,1.49c1.98,0.83,3.73,2.03,5.26,3.57c1.52,1.55,2.68,3.36,3.47,5.41
		c0.79,2.05,1.19,4.23,1.19,6.53c0,4.71-1.33,8.47-3.99,11.29c-2.66,2.81-6.69,4.81-12.09,5.99c2.27,1.21,4.44,2.99,6.51,5.34
		c2.07,2.36,3.91,4.86,5.54,7.52c1.62,2.66,2.89,5.05,3.79,7.2c0.91,2.14,1.36,3.61,1.36,4.42c0,0.83-0.27,1.66-0.8,2.48
		c-0.53,0.82-1.26,1.46-2.18,1.94c-0.92,0.47-1.98,0.71-3.19,0.71c-1.44,0-2.64-0.34-3.62-1.01c-0.98-0.68-1.82-1.53-2.52-2.56
		c-0.7-1.03-1.66-2.55-2.87-4.57l-5.13-8.53c-1.84-3.13-3.48-5.52-4.93-7.15c-1.45-1.64-2.92-2.76-4.42-3.36
		C371.63,392.21,369.75,391.91,367.48,391.91 M374.81,365.36H363v17.36h11.46c3.07,0,5.66-0.27,7.75-0.79
		c2.1-0.53,3.7-1.44,4.8-2.72c1.11-1.28,1.66-3.04,1.66-5.28c0-1.75-0.44-3.3-1.33-4.63c-0.89-1.33-2.13-2.33-3.71-2.99
		C382.15,365.68,379.2,365.36,374.81,365.36"/>
	<path class="st3" d="M450.97,365.62h-28.83v15.51h26.54c1.95,0,3.41,0.44,4.37,1.31c0.96,0.88,1.44,2.03,1.44,3.47
		c0,1.44-0.47,2.61-1.42,3.51c-0.95,0.9-2.41,1.36-4.4,1.36h-26.54v17.97h29.82c2.01,0,3.53,0.46,4.55,1.4
		c1.02,0.93,1.53,2.17,1.53,3.72c0,1.5-0.51,2.71-1.53,3.64c-1.02,0.94-2.54,1.4-4.55,1.4h-34.77c-2.79,0-4.79-0.62-6.01-1.85
		c-1.22-1.23-1.83-3.23-1.83-5.99V363.6c0-1.84,0.27-3.34,0.82-4.5c0.54-1.16,1.4-2.01,2.56-2.54c1.16-0.53,2.65-0.8,4.46-0.8h33.78
		c2.04,0,3.55,0.45,4.55,1.36c0.99,0.91,1.49,2.09,1.49,3.55c0,1.5-0.5,2.7-1.49,3.6C454.53,365.17,453.01,365.62,450.97,365.62"/>
	<path class="st3" d="M501.54,365.62h-25.21v16.16h21.07c1.95,0,3.41,0.44,4.37,1.32c0.96,0.88,1.44,2.05,1.44,3.51
		c0,1.46-0.49,2.63-1.46,3.49c-0.98,0.86-2.43,1.29-4.35,1.29h-21.07v20.81c0,2.64-0.6,4.6-1.79,5.88
		c-1.19,1.28-2.72,1.92-4.59,1.92c-1.9,0-3.44-0.65-4.63-1.94c-1.19-1.29-1.79-3.25-1.79-5.86v-48.6c0-1.84,0.27-3.34,0.82-4.5
		c0.54-1.16,1.4-2.01,2.56-2.54c1.16-0.53,2.65-0.8,4.46-0.8h30.16c2.04,0,3.55,0.45,4.55,1.36c0.99,0.91,1.49,2.09,1.49,3.55
		c0,1.5-0.5,2.7-1.49,3.6C505.1,365.17,503.58,365.62,501.54,365.62"/>
	<path class="st3" d="M512.77,392.81v-30.38c0-2.59,0.58-4.53,1.75-5.82c1.16-1.29,2.69-1.94,4.59-1.94c1.98,0,3.56,0.65,4.72,1.94
		c1.16,1.29,1.74,3.23,1.74,5.82v31.07c0,3.53,0.4,6.48,1.19,8.86c0.79,2.37,2.19,4.21,4.2,5.52c2.01,1.3,4.83,1.96,8.45,1.96
		c5,0,8.53-1.33,10.6-3.99c2.07-2.65,3.1-6.69,3.1-12.08v-31.33c0-2.61,0.58-4.56,1.72-5.84c1.15-1.28,2.69-1.92,4.61-1.92
		c1.92,0,3.48,0.64,4.67,1.92c1.19,1.28,1.79,3.23,1.79,5.84v30.38c0,4.94-0.48,9.06-1.44,12.37c-0.96,3.3-2.78,6.2-5.45,8.7
		c-2.3,2.13-4.97,3.68-8.01,4.66c-3.05,0.97-6.61,1.46-10.69,1.46c-4.85,0-9.03-0.53-12.54-1.57c-3.51-1.05-6.36-2.67-8.58-4.87
		c-2.21-2.2-3.83-5.01-4.87-8.45C513.29,401.68,512.77,397.58,512.77,392.81"/>
	<path class="st3" d="M633.01,393.24v12.11c0,1.61-0.16,2.89-0.47,3.86c-0.32,0.96-0.9,1.83-1.75,2.61
		c-0.85,0.78-1.93,1.53-3.25,2.24c-3.82,2.07-7.5,3.58-11.03,4.52s-7.38,1.42-11.55,1.42c-4.85,0-9.28-0.75-13.27-2.24
		c-3.99-1.49-7.4-3.66-10.21-6.51c-2.82-2.84-4.98-6.29-6.49-10.34c-1.51-4.05-2.26-8.57-2.26-13.57c0-4.91,0.73-9.41,2.2-13.49
		c1.47-4.08,3.62-7.54,6.46-10.38c2.84-2.84,6.3-5.02,10.38-6.53c4.08-1.51,8.71-2.26,13.88-2.26c4.25,0,8.01,0.57,11.29,1.7
		c3.28,1.13,5.93,2.56,7.97,4.29c2.04,1.73,3.58,3.55,4.61,5.47c1.04,1.92,1.55,3.63,1.55,5.13c0,1.61-0.6,2.98-1.79,4.11
		c-1.19,1.13-2.62,1.7-4.29,1.7c-0.92,0-1.8-0.21-2.65-0.65c-0.85-0.43-1.56-1.03-2.13-1.81c-1.58-2.47-2.92-4.34-4.01-5.6
		c-1.09-1.26-2.56-2.33-4.42-3.19c-1.85-0.86-4.22-1.29-7.09-1.29c-2.96,0-5.6,0.51-7.93,1.53c-2.33,1.02-4.32,2.5-5.97,4.44
		c-1.65,1.94-2.91,4.32-3.79,7.13c-0.88,2.81-1.32,5.93-1.32,9.35c0,7.41,1.7,13.12,5.11,17.11c3.41,4,8.15,5.99,14.24,5.99
		c2.96,0,5.74-0.39,8.34-1.16c2.6-0.78,5.23-1.88,7.91-3.32v-10.26h-9.91c-2.39,0-4.19-0.36-5.41-1.08
		c-1.22-0.72-1.83-1.94-1.83-3.66c0-1.41,0.51-2.57,1.53-3.49c1.02-0.92,2.41-1.38,4.16-1.38h14.52c1.78,0,3.29,0.16,4.52,0.47
		c1.24,0.32,2.23,1.02,3,2.11C632.63,389.42,633.01,391.06,633.01,393.24"/>
	<path class="st3" d="M641.31,412.2v-49.77c0-2.59,0.59-4.53,1.77-5.82c1.18-1.29,2.7-1.94,4.57-1.94c1.92,0,3.48,0.64,4.67,1.92
		c1.19,1.28,1.79,3.23,1.79,5.84v49.77c0,2.61-0.59,4.56-1.79,5.86c-1.19,1.29-2.75,1.94-4.67,1.94c-1.84,0-3.35-0.66-4.55-1.96
		C641.91,416.73,641.31,414.79,641.31,412.2"/>
	<path class="st3" d="M691.8,354.68c6.55,0,12.17,1.33,16.87,3.98c4.69,2.66,8.25,6.44,10.66,11.33c2.41,4.9,3.62,10.65,3.62,17.26
		c0,4.88-0.66,9.32-1.98,13.31c-1.32,3.99-3.3,7.45-5.95,10.38c-2.64,2.93-5.89,5.17-9.74,6.72c-3.85,1.55-8.26,2.33-13.23,2.33
		c-4.94,0-9.36-0.8-13.27-2.39c-3.91-1.6-7.17-3.84-9.78-6.75c-2.61-2.9-4.59-6.39-5.92-10.47c-1.34-4.08-2-8.49-2-13.23
		c0-4.85,0.7-9.31,2.09-13.36c1.39-4.05,3.41-7.5,6.06-10.34c2.64-2.84,5.86-5.02,9.65-6.53
		C682.66,355.43,686.97,354.68,691.8,354.68 M709.98,387.17c0-4.62-0.75-8.63-2.24-12.02c-1.49-3.39-3.63-5.95-6.4-7.69
		c-2.77-1.74-5.95-2.61-9.54-2.61c-2.56,0-4.92,0.48-7.09,1.44c-2.17,0.96-4.04,2.36-5.6,4.2c-1.57,1.84-2.8,4.19-3.71,7.05
		c-0.9,2.86-1.36,6.07-1.36,9.63c0,3.59,0.45,6.84,1.36,9.74c0.91,2.9,2.18,5.31,3.84,7.22c1.65,1.91,3.55,3.34,5.69,4.29
		c2.14,0.95,4.49,1.42,7.04,1.42c3.27,0,6.28-0.82,9.03-2.46c2.74-1.64,4.93-4.16,6.55-7.58
		C709.17,396.37,709.98,392.17,709.98,387.17"/>
	<path d="M718.96,196.52c9.79,0,18.92,6.93,18.92,18.92c0,11.99-9.13,18.92-18.92,18.92c-9.79,0-18.92-6.92-18.92-18.92
		C700.04,203.44,709.17,196.52,718.96,196.52 M718.96,229.84c7.28,0,13.2-5.87,13.2-14.4c0-8.53-5.92-14.4-13.2-14.4
		c-7.38,0-13.2,5.87-13.2,14.4C705.76,223.97,711.58,229.84,718.96,229.84 M711.48,207.56c0-1.51,1.1-2.26,2.26-2.26h6.37
		c4.52,0,7.28,1.35,7.28,6.07c0,3.71-2.31,5.57-4.67,5.72l3.31,4.42c0.55,0.75,0.65,1.36,0.65,2.01c0,0.85-0.9,1.76-2.16,1.76
		c-1.05,0-1.81-0.45-2.61-1.61l-4.62-6.57H716v5.87c0,1.56-1,2.31-2.26,2.31c-1.21,0-2.26-0.75-2.26-2.31V207.56z M716,213.48h3.86
		c1.46,0,2.71-0.4,2.71-2.31c0-1.86-1.25-2.26-2.71-2.26H716V213.48z"/>
</g>
</svg>
