<svg width="24" height="22" viewBox="0 0 24 22" fill="none" xmlns="http://www.w3.org/2000/svg">
<path d="M23.9943 10.8446C23.9943 12.8197 24.0007 14.7947 23.9928 16.7697C23.9836 19.111 22.0212 21.3255 19.6946 21.602C19.1172 21.6708 18.5291 21.6537 17.9458 21.6654C17.306 21.6781 16.6657 21.6825 16.0254 21.6834C15.3851 21.6844 14.7453 21.6751 14.105 21.6727C13.4808 21.6708 12.8571 21.6722 12.2329 21.6717C11.5526 21.6717 10.8718 21.6698 10.1915 21.6712C9.55121 21.6722 8.9109 21.6639 8.27109 21.6815C6.95782 21.7171 5.68502 21.5898 4.57266 20.7993C3.1716 19.804 2.40061 18.4556 2.34258 16.7273C2.31966 16.0456 2.33282 15.3619 2.34014 14.6791C2.34209 14.5026 2.28308 14.4017 2.1241 14.3158C0.936645 13.6755 0.209052 12.6953 0.0369071 11.3494C-0.146454 9.9137 0.357301 8.7316 1.46137 7.80797C1.66473 7.63778 1.90075 7.50074 2.13581 7.37542C2.28893 7.29398 2.33965 7.19498 2.33819 7.02966C2.33234 6.35522 2.3338 5.6803 2.33867 5.00586C2.35721 2.46855 4.3537 0.287239 6.88223 0.0448705C7.15629 0.0185368 7.4328 0.00341922 7.70833 0.00293155C11.3824 5.57795e-06 15.0559 0.00390688 18.7295 5.57796e-06C20.2544 -0.00194507 21.5628 0.507662 22.6147 1.62197C23.4925 2.55194 23.9743 3.6643 23.9885 4.94442C24.0104 6.91116 23.9943 8.8779 23.9943 10.8451V10.8446ZM18.9304 16.7161L18.9831 16.6634C18.7105 15.9695 18.4408 15.2746 18.1638 14.5826C18.0975 14.4163 18.0278 14.2783 18.1511 14.091C19.5098 12.0321 19.4673 9.2695 17.8956 7.27739C16.3912 5.37112 14.4005 4.64548 12.0202 5.06682C10.6879 5.30285 9.58973 6.00216 8.70804 7.02283C7.70199 8.18737 7.24554 9.56161 7.28552 11.0885C7.30698 11.9058 7.51375 12.6905 7.87901 13.4332C8.63391 14.9693 9.84234 15.99 11.4511 16.5059C13.0911 17.0316 14.6834 16.8224 16.1727 15.9641C16.456 15.8008 16.6725 15.8212 16.9403 15.9305C17.6011 16.2002 18.2672 16.4552 18.9309 16.7166L18.9304 16.7161ZM17.9649 17.7309L17.9517 17.6412C17.5303 17.4773 17.1105 17.3086 16.6852 17.1555C16.6238 17.1335 16.5287 17.173 16.4594 17.2067C14.1742 18.3142 11.9008 18.2913 9.6858 17.0516C7.25968 15.694 5.83619 13.0986 6.11075 10.1629C6.28435 8.30734 7.09144 6.74438 8.50127 5.51011C10.0803 4.12807 11.931 3.55068 14.0036 3.77549C15.8089 3.97153 17.3285 4.77764 18.5476 6.13626C20.4456 8.25077 20.8874 11.422 19.6117 13.9642C19.4556 14.2749 19.4074 14.5353 19.5634 14.8508C19.7009 15.1293 19.7946 15.4297 19.9277 15.772C20.0213 15.6437 20.0813 15.5706 20.132 15.4911C21.535 13.319 21.9144 10.9773 21.1927 8.49655C20.5495 6.285 19.1689 4.62451 17.1524 3.52191C15.6519 2.70117 14.0299 2.37395 12.3255 2.58462C9.19521 2.97182 6.96367 4.6211 5.60455 7.45783C5.50799 7.65972 5.40559 7.7553 5.17004 7.7514C4.66726 7.74311 4.15522 7.71288 3.66219 7.78847C2.06607 8.03278 0.925916 9.55332 1.10928 11.1724C1.26679 12.5666 2.37964 13.7438 3.77874 13.8974C4.23715 13.9476 4.70286 13.9413 5.16517 13.9379C5.37145 13.9364 5.48361 13.9935 5.57042 14.192C6.09953 15.4033 6.87247 16.4352 7.89315 17.2789C9.48098 18.5921 11.3204 19.212 13.3652 19.1959C14.5639 19.1866 15.7177 18.9086 16.7979 18.3737C17.1953 18.1771 17.5762 17.946 17.9644 17.7309H17.9649Z" fill="#E48125"/>
<path d="M5.05551 8.97252C5.00528 9.37338 4.95651 9.73229 4.91555 10.0922C4.8307 10.8393 4.86825 11.582 5.00431 12.3203C5.04917 12.5648 4.9492 12.6869 4.70439 12.6866C4.51762 12.6866 4.33084 12.6875 4.14456 12.6861C3.1229 12.6778 2.33533 11.8653 2.33582 10.8208C2.33582 9.81032 3.14875 8.98032 4.14602 8.973C4.44349 8.97105 4.74097 8.973 5.05551 8.973V8.97252Z" fill="#E48125"/>
</svg>
