<svg width="23" height="22" viewBox="0 0 23 22" fill="none" xmlns="http://www.w3.org/2000/svg">
<path fill-rule="evenodd" clip-rule="evenodd" d="M7.15451 0.471601C8.27848 0.419858 8.63685 0.40836 11.5 0.40836C14.3631 0.40836 14.7215 0.420816 15.8445 0.471601C16.9675 0.522386 17.734 0.70157 18.4048 0.961244C19.1072 1.22667 19.7444 1.64157 20.2714 2.17816C20.808 2.70422 21.2219 3.34047 21.4864 4.04379C21.747 4.71453 21.9252 5.4811 21.977 6.60219C22.0287 7.72808 22.0402 8.08645 22.0402 10.9486C22.0402 13.8117 22.0278 14.1701 21.977 15.2941C21.9262 16.4152 21.747 17.1817 21.4864 17.8525C21.2219 18.5559 20.8073 19.1932 20.2714 19.72C19.7444 20.2566 19.1072 20.6706 18.4048 20.935C17.734 21.1957 16.9675 21.3739 15.8464 21.4256C14.7215 21.4774 14.3631 21.4889 11.5 21.4889C8.63685 21.4889 8.27848 21.4764 7.15451 21.4256C6.03341 21.3748 5.26685 21.1957 4.5961 20.935C3.89271 20.6705 3.2554 20.2559 2.72856 19.72C2.19233 19.1936 1.77737 18.5566 1.5126 17.8534C1.25293 17.1827 1.0747 16.4161 1.02296 15.295C0.971215 14.1691 0.959717 13.8108 0.959717 10.9486C0.959717 8.0855 0.972173 7.72713 1.02296 6.60411C1.07374 5.48109 1.25293 4.71453 1.5126 4.04379C1.77776 3.34054 2.19304 2.70356 2.72952 2.17721C3.25561 1.64109 3.89228 1.22613 4.59515 0.961244C5.26589 0.70157 6.03245 0.523344 7.15355 0.471601H7.15451ZM15.7592 2.36885C14.6477 2.31806 14.3142 2.30752 11.5 2.30752C8.68572 2.30752 8.35227 2.31806 7.24075 2.36885C6.21259 2.4158 5.65492 2.58732 5.28314 2.73201C4.79158 2.92365 4.43992 3.15074 4.07101 3.51965C3.72131 3.85986 3.45218 4.27403 3.28336 4.73178C3.13867 5.10356 2.96716 5.66124 2.9202 6.68939C2.86942 7.80091 2.85888 8.13436 2.85888 10.9486C2.85888 13.7629 2.86942 14.0963 2.9202 15.2078C2.96716 16.236 3.13867 16.7937 3.28336 17.1654C3.45201 17.6225 3.72126 18.0374 4.07101 18.3776C4.41117 18.7273 4.82607 18.9966 5.28314 19.1652C5.65492 19.3099 6.21259 19.4814 7.24075 19.5284C8.35227 19.5792 8.68476 19.5897 11.5 19.5897C14.3152 19.5897 14.6477 19.5792 15.7592 19.5284C16.7873 19.4814 17.345 19.3099 17.7168 19.1652C18.2084 18.9736 18.56 18.7465 18.9289 18.3776C19.2787 18.0374 19.5479 17.6225 19.7166 17.1654C19.8613 16.7937 20.0328 16.236 20.0797 15.2078C20.1305 14.0963 20.1411 13.7629 20.1411 10.9486C20.1411 8.13436 20.1305 7.80091 20.0797 6.68939C20.0328 5.66124 19.8613 5.10356 19.7166 4.73178C19.5249 4.24022 19.2978 3.88856 18.9289 3.51965C18.5887 3.16997 18.1745 2.90085 17.7168 2.73201C17.345 2.58732 16.7873 2.4158 15.7592 2.36885V2.36885ZM10.1537 14.1979C10.9056 14.5109 11.7428 14.5531 12.5223 14.3174C13.3019 14.0817 13.9754 13.5826 14.4279 12.9055C14.8803 12.2284 15.0837 11.4151 15.0032 10.6047C14.9227 9.7943 14.5634 9.03697 13.9865 8.46207C13.6188 8.09458 13.1742 7.81318 12.6846 7.63815C12.1951 7.46312 11.6729 7.39881 11.1555 7.44984C10.6381 7.50087 10.1385 7.66597 9.69261 7.93327C9.24671 8.20056 8.86562 8.56339 8.57678 8.99565C8.28793 9.4279 8.09852 9.91882 8.02218 10.4331C7.94584 10.9473 7.98446 11.4721 8.13527 11.9696C8.28608 12.4671 8.54533 12.925 8.89434 13.3103C9.24336 13.6956 9.67346 13.9988 10.1537 14.1979ZM7.66907 7.11771C8.17215 6.61463 8.76939 6.21556 9.4267 5.9433C10.084 5.67103 10.7885 5.5309 11.5 5.5309C12.2114 5.5309 12.9159 5.67103 13.5732 5.9433C14.2305 6.21556 14.8278 6.61463 15.3309 7.11771C15.834 7.62079 16.233 8.21803 16.5053 8.87534C16.7775 9.53265 16.9177 10.2371 16.9177 10.9486C16.9177 11.6601 16.7775 12.3646 16.5053 13.0219C16.233 13.6792 15.834 14.2764 15.3309 14.7795C14.3149 15.7955 12.9368 16.3663 11.5 16.3663C10.0631 16.3663 8.68508 15.7955 7.66907 14.7795C6.65305 13.7635 6.08225 12.3855 6.08225 10.9486C6.08225 9.51174 6.65305 8.13373 7.66907 7.11771V7.11771ZM18.1192 6.33773C18.2439 6.22013 18.3437 6.07871 18.4127 5.92184C18.4818 5.76498 18.5186 5.59586 18.5211 5.42449C18.5236 5.25313 18.4917 5.08301 18.4273 4.9242C18.3629 4.76539 18.2672 4.62112 18.146 4.49993C18.0249 4.37875 17.8806 4.28311 17.7218 4.21868C17.563 4.15425 17.3928 4.12234 17.2215 4.12484C17.0501 4.12733 16.881 4.16419 16.7241 4.23322C16.5673 4.30225 16.4258 4.40206 16.3082 4.52672C16.0795 4.76918 15.9543 5.09122 15.9592 5.42449C15.964 5.75777 16.0986 6.07602 16.3343 6.31171C16.5699 6.54739 16.8882 6.68194 17.2215 6.6868C17.5547 6.69166 17.8768 6.56644 18.1192 6.33773V6.33773Z" fill="#E48125"/>
</svg>
