<svg width="24" height="24" viewBox="0 0 24 24" fill="none" xmlns="http://www.w3.org/2000/svg">
<path fill-rule="evenodd" clip-rule="evenodd" d="M1 2.83817C1 2.3507 1.19365 1.8832 1.53834 1.53851C1.88303 1.19382 2.35053 1.00017 2.838 1.00017H21.16C21.4016 0.999776 21.6409 1.04703 21.8641 1.13924C22.0874 1.23144 22.2903 1.36678 22.4612 1.53751C22.6322 1.70823 22.7677 1.91099 22.8602 2.13418C22.9526 2.35737 23.0001 2.5966 23 2.83817V21.1602C23.0003 21.4018 22.9529 21.6411 22.8606 21.8644C22.7683 22.0877 22.6328 22.2906 22.462 22.4615C22.2912 22.6324 22.0884 22.7679 21.8651 22.8604C21.6419 22.9528 21.4026 23.0003 21.161 23.0002H2.838C2.59655 23.0002 2.35746 22.9526 2.1344 22.8602C1.91134 22.7677 1.70867 22.6323 1.53798 22.4615C1.3673 22.2907 1.23193 22.088 1.13962 21.8648C1.04731 21.6417 0.999869 21.4026 1 21.1612V2.83817ZM9.708 9.38817H12.687V10.8842C13.117 10.0242 14.217 9.25017 15.87 9.25017C19.039 9.25017 19.79 10.9632 19.79 14.1062V19.9282H16.583V14.8222C16.583 13.0322 16.153 12.0222 15.061 12.0222C13.546 12.0222 12.916 13.1112 12.916 14.8222V19.9282H9.708V9.38817ZM4.208 19.7912H7.416V9.25017H4.208V19.7902V19.7912ZM7.875 5.81217C7.88105 6.08684 7.83217 6.35996 7.73124 6.61548C7.63031 6.87101 7.47935 7.10381 7.28723 7.3002C7.09511 7.4966 6.8657 7.65264 6.61246 7.75918C6.35921 7.86571 6.08724 7.92059 5.8125 7.92059C5.53776 7.92059 5.26579 7.86571 5.01255 7.75918C4.7593 7.65264 4.52989 7.4966 4.33777 7.3002C4.14565 7.10381 3.99469 6.87101 3.89376 6.61548C3.79283 6.35996 3.74395 6.08684 3.75 5.81217C3.76187 5.27302 3.98439 4.75996 4.36989 4.38286C4.75539 4.00575 5.27322 3.79459 5.8125 3.79459C6.35178 3.79459 6.86961 4.00575 7.25512 4.38286C7.64062 4.75996 7.86313 5.27302 7.875 5.81217V5.81217Z" fill="#E48125"/>
</svg>
