<svg width="26" height="32" viewBox="0 0 26 32" fill="none" xmlns="http://www.w3.org/2000/svg">
<path d="M13.0002 0.166626C9.64075 0.166626 6.41894 1.50115 4.04348 3.87661C1.66802 6.25207 0.333496 9.47388 0.333496 12.8333C0.333496 21.3833 11.496 31.0416 11.971 31.4533C12.2578 31.6986 12.6228 31.8334 13.0002 31.8334C13.3776 31.8334 13.7425 31.6986 14.0293 31.4533C14.5835 31.0416 25.6668 21.3833 25.6668 12.8333C25.6668 9.47388 24.3323 6.25207 21.9569 3.87661C19.5814 1.50115 16.3596 0.166626 13.0002 0.166626ZM13.0002 28.1125C9.62766 24.9458 3.50016 18.1216 3.50016 12.8333C3.50016 10.3137 4.50105 7.89737 6.28265 6.11578C8.06424 4.33418 10.4806 3.33329 13.0002 3.33329C15.5197 3.33329 17.9361 4.33418 19.7177 6.11578C21.4993 7.89737 22.5002 10.3137 22.5002 12.8333C22.5002 18.1216 16.3727 24.9616 13.0002 28.1125ZM13.0002 6.49996C11.7475 6.49996 10.5231 6.8714 9.48155 7.56732C8.44004 8.26323 7.62828 9.25237 7.14893 10.4096C6.66957 11.5669 6.54415 12.8403 6.78852 14.0689C7.0329 15.2974 7.63609 16.4259 8.52182 17.3116C9.40755 18.1974 10.536 18.8006 11.7646 19.0449C12.9931 19.2893 14.2666 19.1639 15.4238 18.6845C16.5811 18.2052 17.5702 17.3934 18.2661 16.3519C18.9621 15.3104 19.3335 14.0859 19.3335 12.8333C19.3335 11.1536 18.6662 9.54268 17.4785 8.35495C16.2908 7.16722 14.6799 6.49996 13.0002 6.49996ZM13.0002 16C12.3739 16 11.7616 15.8142 11.2409 15.4663C10.7201 15.1183 10.3142 14.6238 10.0745 14.0451C9.83487 13.4665 9.77216 12.8298 9.89434 12.2155C10.0165 11.6012 10.3181 11.037 10.761 10.5941C11.2039 10.1513 11.7681 9.84966 12.3824 9.72747C12.9967 9.60529 13.6334 9.668 14.212 9.90767C14.7906 10.1474 15.2852 10.5532 15.6332 11.074C15.9811 11.5947 16.1668 12.207 16.1668 12.8333C16.1668 13.6731 15.8332 14.4786 15.2393 15.0725C14.6455 15.6663 13.84 16 13.0002 16Z" fill="#E48125"/>
</svg>
