<svg width="152" height="104" viewBox="0 0 152 104" fill="none" xmlns="http://www.w3.org/2000/svg">
<path fill-rule="evenodd" clip-rule="evenodd" d="M95.3632 85.4707C97.6031 82.9733 99.6693 80.5836 99.9628 79.2061C99.1123 80.0506 97.8666 80.8232 96.3933 81.5538C94.8242 82.3324 91.8656 81.9072 92.1291 79.6314C92.3387 77.8107 95.3093 76.1278 96.7287 78.3916C97.3875 79.4397 96.9144 80.1764 98.3817 79.4337C99.1363 79.0504 99.7412 78.4575 100.071 77.7508C100.46 76.9243 100.286 76.0679 100.148 75.1935C99.5915 71.5521 97.8846 69.3901 94.9919 68.7133C90.6738 67.7012 79.7498 69.989 77.3062 73.792C76.2462 75.451 76.0725 77.5711 76.7792 80.1644C77.0128 81.0208 77.2044 81.8713 77.8932 82.4702C78.4801 82.9792 79.2766 83.2787 80.1151 83.3206C81.7561 83.3985 81.0314 82.9253 81.2051 81.6976C81.5824 79.0564 84.9842 79.3858 85.9125 80.9609C87.0804 82.9313 84.553 84.5244 82.8042 84.4466C81.1632 84.3747 79.7078 84.177 78.5879 83.7518C79.4084 84.8778 82.2053 86.2013 85.2178 87.5489C91.668 90.4356 90.6558 90.7171 95.3632 85.4707Z" fill="#444445"/>
<path d="M38.4433 37.5764C39.5872 13.7939 47.5047 6.61902 47.5047 6.61902C47.5047 6.61902 19.5299 14.7162 2.95822 32.2042C-2.935 40.6667 4.43153 49.5066 4.43153 49.5066L18.9729 73.4388C18.9729 73.4388 25.9681 85.9559 33.7 70.6778C35.9099 63.6826 38.3056 52.0878 38.4433 37.5764Z" fill="#444445"/>
<path d="M114.983 26.4367C106.305 4.30723 96.531 0.0430366 96.531 0.0430366C96.531 0.0430366 125.584 -1.22664 146.833 10.0268C155.11 16.1536 150.959 26.862 150.959 26.862L144.845 54.1421C144.845 54.1421 142.221 68.2163 130.034 56.2322C125.71 50.3151 119.751 40.1157 114.983 26.4367Z" fill="#444445"/>
<path d="M66.1546 44.4997C65.0107 41.3914 61.8605 34.3483 56.5542 33.4619C49.9962 32.7432 47.2532 37.4626 46.1991 40.4032C45.75 41.6549 45.5044 42.715 45.2289 43.4396C44.6659 44.5895 45.3187 44.6015 45.4625 44.6075C46.247 44.6554 47.5946 44.9249 49.0559 46.0389C52.6733 48.7998 58.2611 48.3087 61.4712 47.063C62.3695 46.7157 63.8309 46.4162 64.9748 46.2186C65.3461 46.1647 66.9392 46.1946 66.1546 44.4997ZM54.8293 45.9491C51.4336 45.9491 48.6846 43.3678 48.6846 40.1816C48.6846 36.9954 51.4395 34.4142 54.8293 34.4142C58.2191 34.4142 60.9741 36.9954 60.9741 40.1816C60.9741 43.3678 58.2191 45.9491 54.8293 45.9491Z" fill="#444445"/>
<path d="M55.4522 36.3546C52.4517 36.3546 50.0201 38.6364 50.0201 41.4512C50.0201 44.2661 52.4517 46.5539 55.4522 46.5539C58.4527 46.5539 60.8843 44.2721 60.8843 41.4512C60.8843 38.6364 58.4527 36.3546 55.4522 36.3546ZM55.8595 41.9363C54.8353 41.9363 54.0029 41.1039 54.0029 40.0797C54.0029 39.0556 54.8353 38.2231 55.8595 38.2231C56.8896 38.2231 57.7161 39.0556 57.7161 40.0797C57.7221 41.1039 56.8896 41.9363 55.8595 41.9363Z" fill="#444445"/>
<path d="M98.6152 24.2148C90.4521 28.5149 93.788 39.1395 93.788 39.1395C94.369 41.3075 95.2613 41.1278 97.0101 40.1816C109.779 37.738 110.258 30.5392 110.258 30.5392C110.258 30.5392 106.137 20.9448 98.6152 24.2148ZM101.059 36.7738C97.627 36.5882 94.9858 33.8332 95.1595 30.6171C95.3332 27.395 98.2439 24.9395 101.676 25.1191C105.107 25.2988 107.748 28.0538 107.575 31.2759C107.407 34.492 104.484 36.9535 101.059 36.7738Z" fill="#444445"/>
<path d="M101.855 26.9279C98.771 26.7662 96.1478 28.9821 95.9921 31.8748C95.8423 34.7675 98.214 37.241 101.298 37.4087C104.383 37.5704 107.006 35.3545 107.162 32.4617C107.311 29.575 104.94 27.0956 101.855 26.9279ZM101.155 32.7073C100.184 32.6594 99.4418 31.8269 99.4957 30.8627C99.5436 29.8924 100.37 29.1498 101.34 29.1977C102.311 29.2516 103.053 30.0781 102.999 31.0483C102.951 32.0186 102.125 32.7612 101.155 32.7073Z" fill="#444445"/>
<path d="M88.4219 88.034C89.1585 88.8365 93.2071 93.9033 89.997 97.0415C91.3984 97.8441 95.6147 96.8199 95.0817 96.0833C92.2129 95.2149 91.7278 88.3095 92.4645 87.4411C93.1951 86.5787 89.1585 86.8961 88.4219 88.034Z" fill="#444445"/>
<path d="M39.7309 65.8267C37.9402 64.6169 39.7788 65.1679 41.7312 66.0662C44.3125 67.252 50.589 68.5277 53.9968 76.4213C57.9376 85.2551 59.7942 88.8485 60.98 90.3817C61.5909 91.1723 61.4172 91.7053 60.3631 90.8369C54.404 84.8718 52.775 81.488 51.1819 77.7568C48.0377 71.2108 41.9408 67.3239 39.7309 65.8267Z" fill="#444445"/>
<path d="M121.913 53.2017C121.972 51.8482 121.721 51.1355 121.122 53.04C120.499 55.0224 118.84 58.7476 116.678 61.796C114.061 65.4913 113.893 72.3607 114.78 77.2597C115.408 79.7392 115.876 80.398 115.774 77.0202C115.636 72.3068 116.876 66.2938 118.756 63.5448C121.913 58.7057 121.787 56.1484 121.913 53.2017Z" fill="#444445"/>
<path d="M115.48 83.68C113.444 94.634 104.335 96.8919 94.932 96.0175C93.3628 95.8138 92.0512 96.0294 90.7995 96.4786C86.9605 99.0898 71.5986 104.39 64.4837 95.8138C63.9626 95.0532 63.1541 95.5922 64.0165 96.6762C67.8495 102.887 77.1086 106.947 91.4044 99.1737C93.0215 98.3472 93.7401 98.5029 94.926 98.7964C103.987 100.91 116.84 95.6222 116.133 84.5065C116.151 82.5421 115.492 82.5601 115.48 83.68Z" fill="#444445"/>
</svg>
