<svg width="24" height="24" viewBox="0 0 24 24" fill="none" xmlns="http://www.w3.org/2000/svg">
<g clip-path="url(#clip0_285_356)">
<path d="M19.321 5.56208C19.1691 5.48352 19.0213 5.39741 18.878 5.30408C18.4617 5.0288 18.0799 4.70447 17.741 4.33808C16.892 3.36708 16.575 2.38208 16.459 1.69308H16.463C16.366 1.12008 16.406 0.750076 16.413 0.750076H12.548V15.6931C12.548 15.8931 12.548 16.0921 12.54 16.2881C12.54 16.3121 12.537 16.3341 12.536 16.3611C12.536 16.3711 12.536 16.3831 12.533 16.3941V16.4031C12.4924 16.9391 12.3207 17.4569 12.033 17.911C11.7453 18.3651 11.3504 18.7415 10.883 19.0071C10.3954 19.2845 9.84397 19.4299 9.28301 19.4291C7.48301 19.4291 6.02301 17.9611 6.02301 16.1481C6.02301 14.3341 7.48301 12.8661 9.28301 12.8661C9.62401 12.8661 9.96301 12.9201 10.287 13.0261L10.292 9.09008C9.30803 8.96313 8.30841 9.04154 7.35625 9.32037C6.4041 9.5992 5.52008 10.0724 4.76001 10.7101C4.09387 11.2886 3.5338 11.979 3.10501 12.7501C2.94201 13.0311 2.32601 14.1621 2.25201 15.9961C2.20501 17.0361 2.51801 18.1161 2.66701 18.5611V18.5711C2.76001 18.8331 3.12401 19.7291 3.71601 20.4841C4.19341 21.0901 4.75746 21.6225 5.39001 22.0641V22.0541L5.39901 22.0641C7.26901 23.3341 9.34401 23.2511 9.34401 23.2511C9.70301 23.2361 10.906 23.2511 12.272 22.6041C13.787 21.8861 14.649 20.8171 14.649 20.8171C15.2001 20.1782 15.6384 19.4501 15.945 18.6641C16.295 17.7441 16.411 16.6421 16.411 16.2021V8.27308C16.458 8.30108 17.083 8.71408 17.083 8.71408C17.083 8.71408 17.983 9.29108 19.386 9.66608C20.392 9.93308 21.749 9.99008 21.749 9.99008V6.15308C21.274 6.20508 20.309 6.05508 19.32 5.56308L19.321 5.56208Z" fill="#E48125"/>
</g>
<defs>
<clipPath id="clip0_285_356">
<rect width="24" height="24" fill="white"/>
</clipPath>
</defs>
</svg>
