<svg width="23" height="19" viewBox="0 0 23 19" fill="none" xmlns="http://www.w3.org/2000/svg">
<path d="M22.3562 2.44229C21.5561 2.79683 20.6966 3.03638 19.793 3.14465C20.7254 2.58678 21.4229 1.70875 21.7554 0.674403C20.8795 1.1947 19.9208 1.56093 18.9211 1.75717C18.2488 1.03935 17.3583 0.563564 16.3879 0.403685C15.4175 0.243807 14.4214 0.408781 13.5544 0.872994C12.6874 1.33721 11.9978 2.07469 11.5929 2.97094C11.1879 3.86718 11.0902 4.87206 11.3148 5.82954C9.53995 5.74043 7.80363 5.2791 6.21856 4.47551C4.6335 3.67192 3.23511 2.54401 2.11416 1.165C1.73088 1.82617 1.5105 2.59273 1.5105 3.40912C1.51007 4.14406 1.69105 4.86774 2.03739 5.51595C2.38373 6.16417 2.88472 6.71688 3.4959 7.12504C2.78709 7.10248 2.09392 6.91096 1.47408 6.5664V6.6239C1.47401 7.65468 1.83057 8.65374 2.48325 9.45155C3.13593 10.2494 4.04454 10.7968 5.05489 11.001C4.39736 11.1789 3.70798 11.2051 3.03883 11.0776C3.3239 11.9646 3.87917 12.7401 4.62693 13.2958C5.37468 13.8515 6.27748 14.1594 7.20894 14.1765C5.62774 15.4177 3.67497 16.091 1.66477 16.0881C1.30868 16.0882 0.952894 16.0674 0.599243 16.0258C2.63972 17.3377 5.01498 18.034 7.44082 18.0313C15.6526 18.0313 20.1418 11.23 20.1418 5.33128C20.1418 5.13964 20.137 4.94608 20.1284 4.75444C21.0016 4.12296 21.7554 3.34099 22.3543 2.44517L22.3562 2.44229V2.44229Z" fill="#E48125"/>
</svg>
