<svg width="30" height="30" viewBox="0 0 30 30" fill="none" xmlns="http://www.w3.org/2000/svg">
<path d="M21.873 17.9764C21.5007 17.7903 19.6649 16.8901 19.3228 16.7671C18.9806 16.6426 18.7319 16.5811 18.4832 16.9531C18.2345 17.3237 17.5186 18.1624 17.3 18.41C17.083 18.6575 16.8645 18.6875 16.4922 18.5015C15.392 18.0655 14.3765 17.442 13.4913 16.6591C12.6748 15.9079 11.9749 15.0402 11.4143 14.0845C11.1972 13.7124 11.3917 13.5114 11.5786 13.3268C11.7459 13.1603 11.9524 12.8932 12.1378 12.6757C12.2913 12.4879 12.4172 12.2792 12.5116 12.0561C12.5612 11.9535 12.5843 11.8402 12.5788 11.7265C12.5733 11.6128 12.5393 11.5022 12.4799 11.4049C12.3865 11.2189 11.6404 9.38998 11.3299 8.64581C11.0269 7.92266 10.7195 8.02018 10.4888 8.00817C10.2718 7.99767 10.0231 7.99467 9.77442 7.99467C9.58524 7.99992 9.39919 8.04409 9.228 8.12439C9.0568 8.20469 8.90414 8.31939 8.77964 8.46127C8.35765 8.85907 8.02352 9.33999 7.79854 9.8734C7.57355 10.4068 7.46264 10.981 7.47287 11.5595C7.5939 12.9611 8.12351 14.2971 8.99668 15.4033C10.5972 17.7919 12.7944 19.7251 15.3723 21.013C16.0677 21.3104 16.778 21.5718 17.5005 21.7962C18.2622 22.0264 19.0673 22.0762 19.8518 21.9417C20.3713 21.837 20.8634 21.6261 21.2969 21.3224C21.7304 21.0187 22.0959 20.6288 22.3704 20.1773C22.6152 19.6221 22.6907 19.0075 22.5874 18.41C22.4955 18.2539 22.2468 18.1624 21.873 17.9764ZM25.629 4.35488C23.0666 1.80485 19.6606 0.268596 16.0451 0.0321368C12.4296 -0.204322 8.85094 0.875124 5.97541 3.06951C3.09988 5.2639 1.12343 8.42368 0.414028 11.9606C-0.295374 15.4975 0.310614 19.1705 2.11917 22.2958L0 30L7.91901 27.934C10.1093 29.1212 12.5634 29.7432 15.0573 29.7434H15.0633C18.0176 29.7419 20.9052 28.8688 23.3613 27.2344C25.8173 25.6 27.7316 23.2777 28.8622 20.5608C29.9929 17.8439 30.2892 14.8544 29.7137 11.9699C29.1383 9.08546 27.7168 6.43551 25.629 4.35486V4.35488ZM21.6605 25.343C19.6832 26.5767 17.3969 27.2313 15.0633 27.2319H15.0573C12.834 27.2317 10.6516 26.6363 8.73895 25.508L8.28527 25.2409L3.58571 26.4682L4.83973 21.9072L4.54582 21.4391C3.24138 19.3684 2.58307 16.9592 2.65415 14.5161C2.72522 12.073 3.52248 9.7057 4.94512 7.71362C6.36775 5.72154 8.35187 4.19411 10.6466 3.32447C12.9413 2.45484 15.4435 2.28206 17.8369 2.82798C20.2302 3.37391 22.4072 4.61402 24.0925 6.39149C25.7778 8.16897 26.8958 10.404 27.3051 12.8139C27.7144 15.2239 27.3965 17.7005 26.3918 19.9306C25.3871 22.1608 23.7406 24.0443 21.6605 25.343Z" fill="#E48125"/>
</svg>
