<svg width="23" height="17" viewBox="0 0 23 17" fill="none" xmlns="http://www.w3.org/2000/svg">
<path d="M22.5184 3.36234C22.3882 2.89783 22.1345 2.47729 21.7844 2.14542C21.4244 1.80334 20.9832 1.55865 20.5023 1.43443C18.7028 0.96012 11.4933 0.96012 11.4933 0.96012C8.48773 0.925924 5.48289 1.07633 2.49576 1.41048C2.01492 1.54387 1.5745 1.79403 1.21368 2.13871C0.859143 2.47983 0.602344 2.90048 0.468195 3.36138C0.145944 5.0974 -0.0106273 6.86012 0.000591388 8.62576C-0.0109071 10.3898 0.14528 12.152 0.468195 13.8901C0.599469 14.3491 0.85531 14.7678 1.2108 15.1061C1.5663 15.4443 2.00899 15.6887 2.49576 15.818C4.31922 16.2914 11.4933 16.2914 11.4933 16.2914C14.5027 16.3256 17.5114 16.1752 20.5023 15.841C20.9832 15.7168 21.4244 15.4721 21.7844 15.1301C22.139 14.7918 22.391 14.3712 22.5174 13.9131C22.8481 12.1778 23.0089 10.4143 22.9975 8.6478C23.0224 6.87378 22.8618 5.10202 22.5184 3.36138V3.36234ZM9.20127 11.9067V5.34582L15.1996 8.62672L9.20127 11.9067Z" fill="#E48125"/>
</svg>
